<svg width="808" height="689" viewBox="0 0 808 689" fill="none" xmlns="http://www.w3.org/2000/svg">
<path d="M479.769 457.426C480.088 507.285 466.025 530.643 424.504 567C456.095 561.798 476.174 554.349 504.649 526.832C519.164 510.672 526.854 500.079 539.145 476.249C551.401 446.386 550.729 420.16 538.403 378.775C532.079 360.987 528.129 352.066 518.174 336.425C512.016 326.314 503.652 313.862 490.859 295.419C472.657 269.403 464.655 255.097 453.227 231.557C438.795 197.242 435.273 169.156 443.375 124L443.057 124.364C409.565 162.77 390.689 184.416 394.175 253.741C396.911 281.027 399.562 296.779 424.504 333.064C462.474 383.127 476.438 410.527 479.769 457.426Z" fill="url(#paint0_linear_33_69)"/>
<path d="M317.344 275.924C327.557 236.239 336.842 222.799 355.759 204.668C335.555 273.467 345.091 301.483 367.891 348.525C382.552 378.775 391.479 386.842 406.981 413.731C411.814 423.918 413.787 429.326 416.416 438.604C418.887 458.788 418.135 469.729 411.698 488.349C403.957 504.352 397.785 511.444 383.392 520.616C356.959 532.592 342.54 531.787 317.344 520.616C287.236 504.285 278.899 495.132 265.448 454.737C257.94 415.433 259.117 393.548 263.427 354.575C284.702 412.709 297.466 427.177 322.061 413.731C334.552 399.384 332.67 383.02 319.702 344.828C314.438 310.506 314.513 296.429 317.344 275.924Z" fill="url(#paint1_linear_33_69)"/>
<path d="M479.769 457.426C480.088 507.285 466.025 530.643 424.504 567C456.095 561.798 476.174 554.349 504.649 526.832C519.164 510.672 526.854 500.079 539.145 476.249C551.401 446.386 550.729 420.16 538.403 378.775C532.079 360.987 528.129 352.066 518.174 336.425C512.016 326.314 503.652 313.862 490.859 295.419C472.657 269.403 464.655 255.097 453.227 231.557C438.795 197.242 435.273 169.156 443.375 124L443.057 124.364C409.565 162.77 390.689 184.416 394.175 253.741C396.911 281.027 399.562 296.779 424.504 333.064C462.474 383.127 476.438 410.527 479.769 457.426Z" stroke="url(#paint2_linear_33_69)" stroke-linecap="round"/>
<path d="M317.344 275.924C327.557 236.239 336.842 222.799 355.759 204.668C335.555 273.467 345.091 301.483 367.891 348.525C382.552 378.775 391.479 386.842 406.981 413.731C411.814 423.918 413.787 429.326 416.416 438.604C418.887 458.788 418.135 469.729 411.698 488.349C403.957 504.352 397.785 511.444 383.392 520.616C356.959 532.592 342.54 531.787 317.344 520.616C287.236 504.285 278.899 495.132 265.448 454.737C257.94 415.433 259.117 393.548 263.427 354.575C284.702 412.709 297.466 427.177 322.061 413.731C334.552 399.384 332.67 383.02 319.702 344.828C314.438 310.506 314.513 296.429 317.344 275.924Z" stroke="url(#paint3_linear_33_69)" stroke-linecap="round"/>
<defs>
<linearGradient id="paint0_linear_33_69" x1="404" y1="124" x2="404" y2="567" gradientUnits="userSpaceOnUse">
<stop offset="0.0625" stop-color="#FFECAC"/>
<stop offset="0.466346" stop-color="#EB4A00"/>
<stop offset="0.673077" stop-color="#D02E04"/>
<stop offset="0.831731" stop-color="#A40303"/>
<stop offset="0.980769" stop-color="#DB1717"/>
</linearGradient>
<linearGradient id="paint1_linear_33_69" x1="404" y1="124" x2="404" y2="567" gradientUnits="userSpaceOnUse">
<stop offset="0.0625" stop-color="#FFECAC"/>
<stop offset="0.466346" stop-color="#EB4A00"/>
<stop offset="0.673077" stop-color="#D02E04"/>
<stop offset="0.831731" stop-color="#A40303"/>
<stop offset="0.980769" stop-color="#DB1717"/>
</linearGradient>
<linearGradient id="paint2_linear_33_69" x1="404" y1="124" x2="404" y2="567" gradientUnits="userSpaceOnUse">
<stop offset="0.0625" stop-color="#FFD298"/>
<stop offset="0.466346" stop-color="#EB4A00"/>
<stop offset="0.673077" stop-color="#D02E04"/>
<stop offset="0.831731" stop-color="#A40303"/>
<stop offset="0.980769" stop-color="#DB1717"/>
</linearGradient>
<linearGradient id="paint3_linear_33_69" x1="404" y1="124" x2="404" y2="567" gradientUnits="userSpaceOnUse">
<stop offset="0.0625" stop-color="#FFD298"/>
<stop offset="0.466346" stop-color="#EB4A00"/>
<stop offset="0.673077" stop-color="#D02E04"/>
<stop offset="0.831731" stop-color="#A40303"/>
<stop offset="0.980769" stop-color="#DB1717"/>
</linearGradient>
</defs>
</svg>
